<?xml-stylesheet type="text/css" href="../css/main.css" ?>
<svg xmlns="http://www.w3.org/2000/svg" xmlns:xlink="http://www.w3.org/1999/xlink" version="1.1" x="0px" y="0px" viewBox="0 0 310 58.8" enable-background="new 0 0 310 58.8" xml:space="preserve">
	<g id="logo-first-name">
		<path fill="#F04F4D" d="M9.8 57l7.9-55.1h11.1L37.1 57h-7.8l-1.3-9.8H19L17.9 57H9.8z M27.1 40.4l-3.7-27.7h-0.1l-3.4 27.7H27.1z"/>
		<path fill="#F04F4D" d="M42.8 57V1.9h12.4c4.1 0 7 1.2 8.8 3.6c1.8 2.4 2.7 5.9 2.7 10.6l0 24.9c0 5.6-0.9 9.6-2.8 12.2 c-1.8 2.6-4.9 3.9-9.1 3.9H42.8z M51.2 50.5H54c1.5 0 2.7-0.5 3.4-1.5c0.7-1 1-2.8 1-5.5l0-27.2c0-2.9-0.3-4.9-1-6.1 c-0.7-1.2-1.9-1.8-3.6-1.8h-2.5V50.5z"/>
		<path fill="#F04F4D" d="M71.5 57l7.9-55.1h11.1L98.8 57H91l-1.3-9.8h-8.9L79.6 57H71.5z M88.8 40.4l-3.7-27.7H85l-3.4 27.7H88.8z"/>
		<path fill="#F04F4D" d="M104.6 57V1.9H115l7.8 40.3l7.4-40.3h10.5V57h-7.5V36.4l0.3-18.9l-7.4 39.2h-6.7l-7.7-39.2l0.3 18.9V57 H104.6z"/>
	</g>
	<g id="logo-last-name">
		<path d="M146.8 57V1.9h8.4v25.4l8.4-25.4h8.7L163.1 29L173 57h-8.9l-8.9-25.7V57H146.8z"/>
		<path d="M177.2 57V1.9h18.5v7.2h-10.1v16h9.6v7.1h-9.6v17.5H196V57H177.2z"/>
		<path d="M202.8 57V1.9h8.4v48h10.6V57H202.8z"/>
		<path d="M226.6 57V1.9h8.4v48h10.6V57H226.6z"/>
		<path d="M250.4 57V1.9h18.5v7.2h-10.1v16h9.6v7.1h-9.6v17.5h10.5V57H250.4z"/>
		<path d="M287.1 31.1l-2.7-0.1v26H276V1.9h13.9c2.9 0 5 0.6 6.5 1.7c1.4 1.2 2.4 2.8 2.8 4.9s0.7 4.8 0.7 8.1c0 3.4-0.4 5.9-1.1 7.7 c-0.7 1.8-2 2.9-3.9 3.5c1.9 0.3 3.2 1.6 4 3.9c0.8 2.2 1.1 6.9 1.1 14s0.1 10.9 0.3 11.4h-8.4c-0.2-0.4-0.3-7-0.3-19.8 c0-2.4-0.3-4.1-0.9-4.9C290 31.5 288.9 31.1 287.1 31.1z M284.4 24.4h3.4c1.1 0 1.9-0.2 2.4-0.7c0.5-0.5 0.9-1.3 1.1-2.5 c0.2-1.2 0.3-3 0.3-5.4v-0.3c0-3-0.3-4.9-0.8-5.9c-0.5-0.9-1.7-1.4-3.5-1.4h-2.9V24.4z"/>
	</g>
</svg>