<svg xmlns="http://www.w3.org/2000/svg" xmlns:xlink="http://www.w3.org/1999/xlink" version="1.1" x="0px" y="0px" viewBox="0 0 100 100" enable-background="new 0 0 100 100" xml:space="preserve"><style>.style0{fill:	#010101;}.style1{stroke:	#010101;stroke-miterlimit:	10;fill:	none;}.style2{stroke-linejoin:	round;stroke:	#010101;stroke-linecap:	round;stroke-miterlimit:	10;fill:	none;}.style3{stroke:	#000000;fill:	none;}</style><g></g><g display="none"><rect x="17.1" y="1.8" display="inline" width="8.1" height="8.1" class="style0"/><rect x="73.7" y="1.8" display="inline" width="8.1" height="8.1" class="style0"/><line display="inline" x1="25.2" y1="5.9" x2="44.3" y2="5.9" class="style1"/><line display="inline" x1="54.7" y1="5.9" x2="73.7" y2="5.9" class="style1"/><path display="inline" d="M67.1 91.8H31.8c-1.5 0-2.7-1.2-2.7-2.7v-8.5 c0-1.5 1.2-2.7 2.7-2.7h35.2c1.5 0 2.7 1.2 2.7 2.7v8.5C69.8 90.6 68.6 91.8 67.1 91.8z" class="style1"/><rect x="33.8" y="91.8" display="inline" width="31.3" height="7.1" class="style1"/><path display="inline" d="M49.1 11.7L23.5 57.3c0 0 4.1 3.2 7.7 6.8 c3.6 3.6 4.7 9.1 2.6 13.7l0 0l31.3 0l-0.3-0.8c-1.7-4.4-0.7-9.4 2.5-12.8c3.5-3.7 7.8-7 7.8-7L49.8 11.7 C49.6 11.5 49.3 11.5 49.1 11.7z" class="style1"/><line display="inline" x1="49.5" y1="11.1" x2="49.5" y2="52.8" class="style1"/><circle display="inline" cx="49.5" cy="57.7" r="5.3" class="style1"/><rect x="44.2" y="0.6" display="inline" width="10.5" height="10.5" class="style1"/></g><g display="none"><rect x="4.5" y="9.9" display="inline" width="88.1" height="79.8" class="style1"/><rect x="4.5" y="9.9" display="inline" width="88.1" height="21.7" class="style1"/><rect x="53.1" y="46.1" display="inline" width="27.4" height="27.7" class="style2"/><path display="inline" d="M16.9 23.7h-3c-0.8 0-1.5-0.7-1.5-1.5v-3c0-0.8 0.7-1.5 1.5-1.5h3c0.8 0 1.5 0.7 1.5 1.5 v3C18.4 23 17.8 23.7 16.9 23.7z" class="style0"/><path display="inline" d="M27.2 23.7h-3c-0.8 0-1.5-0.7-1.5-1.5v-3c0-0.8 0.7-1.5 1.5-1.5h3c0.8 0 1.5 0.7 1.5 1.5 v3C28.7 23 28 23.7 27.2 23.7z" class="style0"/><path display="inline" d="M37.4 23.7h-3c-0.8 0-1.5-0.7-1.5-1.5v-3c0-0.8 0.7-1.5 1.5-1.5h3c0.8 0 1.5 0.7 1.5 1.5 v3C38.9 23 38.3 23.7 37.4 23.7z" class="style0"/><line display="inline" x1="16.9" y1="46.1" x2="42.4" y2="46.1" class="style2"/><line display="inline" x1="16.9" y1="52.3" x2="42.4" y2="52.3" class="style2"/><line display="inline" x1="16.9" y1="58.6" x2="42.4" y2="58.6" class="style2"/><line display="inline" x1="16.9" y1="64.8" x2="42.4" y2="64.8" class="style2"/><line display="inline" x1="16.9" y1="71.2" x2="42.4" y2="71.2" class="style2"/></g><g display="none"><rect x="3.6" y="12.5" display="inline" width="92.9" height="74.6" class="style1"/><rect x="3.6" y="12.5" display="inline" width="92.9" height="13.4" class="style1"/><circle display="inline" cx="15.1" cy="19.2" r="2.5" class="style0"/><circle display="inline" cx="27" cy="19.2" r="2.5" class="style0"/><circle display="inline" cx="38.9" cy="19.2" r="2.5" class="style0"/><path display="inline" d="M33.5 43.8L20.1 54.6c-0.7 0.6-0.6 1.6 0.1 2.1 l13.2 8.9" class="style1"/><path display="inline" d="M63.8 65.6l13.3-10.9c0.7-0.6 0.6-1.6-0.1-2.1 l-13.2-8.9" class="style1"/><line display="inline" x1="52.4" y1="38.5" x2="42.6" y2="69.9" class="style2"/></g><g display="none"><polygon display="inline" points="5.3,4.6 96.5,95.8 5.3,95.8" class="style2"/><polygon display="inline" points="24.5,45.7 24.5,81.2 60,81.2" class="style2"/><line display="inline" x1="5.3" y1="33.9" x2="15.9" y2="33.9" class="style2"/><line display="inline" x1="5.3" y1="45.7" x2="13" y2="45.7" class="style2"/><line display="inline" x1="5.3" y1="69.3" x2="13" y2="69.3" class="style2"/><line display="inline" x1="5.3" y1="57.2" x2="15.9" y2="57.2" class="style2"/><line display="inline" x1="5.3" y1="81.2" x2="15.9" y2="81.2" class="style2"/><polygon display="inline" points="42.2,2.8 32.6,12.4 85.7,65.5 95.2,65.5 95.2,57.2" class="style2"/><rect x="35.5" y="5.7" transform="matrix(-0.7071 0.7071 -0.7071 -0.7071 80.8406 -8.5007)" display="inline" width="13.4" height="13.6" class="style2"/></g><g display="none"><rect x="2.6" y="16.1" display="inline" width="94.8" height="65.8" class="style2"/><polygon display="inline" points="2.6,69.8 36.6,42.4 55.5,58.9 65.5,47.7 97.4,74.2 97.4,81.9 2.6,81.9" class="style2"/><circle display="inline" cx="77.6" cy="34.4" r="8.3" class="style2"/></g><g display="none"><rect x="27.4" y="28.9" display="inline" width="45.2" height="54.2" class="style2"/><rect x="27.4" y="72.9" display="inline" width="45.2" height="10.2" class="style2"/><polygon display="inline" points="50,3 27.4,28.9 72.6,28.9" class="style2"/><polyline display="inline" points="39.5,15 50,17.4 60.7,15" class="style1"/><path display="inline" d=" M29.8 83.1c0 0 5.4 13.9 20.2 13.9s20.2-13.9 20.2-13.9H29.8z" class="style2"/><line display="inline" x1="43.1" y1="28.9" x2="43.1" y2="72.9" class="style2"/><line display="inline" x1="57.3" y1="28.9" x2="57.3" y2="72.9" class="style2"/></g><g><g><path d="M55.3 65c0 1.6 0.2 3 0.7 3.9c0.5 1 1.1 1.8 1.8 2.3c0.8 0.5 1.7 0.9 2.7 1.1 c1.1 0.2 2.2 0.3 3.3 0.3h2.4V77H33.7v-4.4h2.4c1.2 0 2.3-0.1 3.3-0.2c1-0.2 2-0.5 2.7-0.9c0.8-0.5 1.4-1.2 1.9-2.1 c0.5-0.9 0.7-2.2 0.7-3.7V7.3h-10c-1.5 0-2.8 0.2-3.9 0.7c-1 0.5-1.9 1.1-2.6 1.9c-0.7 0.8-1.2 1.7-1.5 2.7 c-0.3 1-0.6 2.1-0.7 3.3l-0.6 4.5h-5.4l0.5-18.3h59.1l0.5 18.3h-5.4l-0.5-4.5c-0.1-1.2-0.4-2.3-0.7-3.3c-0.3-1-0.8-2-1.5-2.7 c-0.6-0.8-1.5-1.4-2.6-1.9c-1.1-0.5-2.4-0.7-3.9-0.7H55.3V65z" class="style3"/></g><polygon points="80.2,88 74.4,84.7 74.4,88.8 25.8,88.8 25.8,84.7 20.1,88 14.3,91.3 20.1,94.6 25.8,97.9 25.8,93.6 74.4,93.6 74.4,97.9 80.2,94.6 85.9,91.3" class="style3"/></g></svg>