<svg xmlns="http://www.w3.org/2000/svg" xmlns:xlink="http://www.w3.org/1999/xlink" version="1.1" x="0px" y="0px" viewBox="0 0 100 100" enable-background="new 0 0 100 100" xml:space="preserve"><style>.style0{fill:	#010101;}.style1{stroke:	#010101;stroke-miterlimit:	10;fill:	none;}.style2{stroke-linejoin:	round;stroke:	#010101;stroke-linecap:	round;stroke-miterlimit:	10;fill:	none;}</style><g></g><g><rect x="17.1" y="1.8" width="8.1" height="8.1" class="style0"/><rect x="73.7" y="1.8" width="8.1" height="8.1" class="style0"/><line x1="25.2" y1="5.9" x2="44.3" y2="5.9" class="style1"/><line x1="54.7" y1="5.9" x2="73.7" y2="5.9" class="style1"/><path d="M67.1 91.8H31.8c-1.5 0-2.7-1.2-2.7-2.7v-8.5c0-1.5 1.2-2.7 2.7-2.7 h35.2c1.5 0 2.7 1.2 2.7 2.7v8.5C69.8 90.6 68.6 91.8 67.1 91.8z" class="style1"/><rect x="33.8" y="91.8" width="31.3" height="7.1" class="style1"/><path d="M49.1 11.7L23.5 57.3c0 0 4.1 3.2 7.7 6.8c3.6 3.6 4.7 9.1 2.6 13.7 l0 0l31.3 0l-0.3-0.8c-1.7-4.4-0.7-9.4 2.5-12.8c3.5-3.7 7.8-7 7.8-7L49.8 11.7C49.6 11.5 49.3 11.5 49.1 11.7z" class="style1"/><line x1="49.5" y1="11.1" x2="49.5" y2="52.8" class="style1"/><circle cx="49.5" cy="57.7" r="5.3" class="style1"/><rect x="44.2" y="0.6" width="10.5" height="10.5" class="style1"/></g><g display="none"><rect x="4.5" y="9.9" display="inline" width="88.1" height="79.8" class="style1"/><rect x="4.5" y="9.9" display="inline" width="88.1" height="21.7" class="style1"/><rect x="53.1" y="46.1" display="inline" width="27.4" height="27.7" class="style2"/><path display="inline" d="M16.9 23.7h-3c-0.8 0-1.5-0.7-1.5-1.5v-3c0-0.8 0.7-1.5 1.5-1.5h3c0.8 0 1.5 0.7 1.5 1.5 v3C18.4 23 17.8 23.7 16.9 23.7z" class="style0"/><path display="inline" d="M27.2 23.7h-3c-0.8 0-1.5-0.7-1.5-1.5v-3c0-0.8 0.7-1.5 1.5-1.5h3c0.8 0 1.5 0.7 1.5 1.5 v3C28.7 23 28 23.7 27.2 23.7z" class="style0"/><path display="inline" d="M37.4 23.7h-3c-0.8 0-1.5-0.7-1.5-1.5v-3c0-0.8 0.7-1.5 1.5-1.5h3c0.8 0 1.5 0.7 1.5 1.5 v3C38.9 23 38.3 23.7 37.4 23.7z" class="style0"/><line display="inline" x1="16.9" y1="46.1" x2="42.4" y2="46.1" class="style2"/><line display="inline" x1="16.9" y1="52.3" x2="42.4" y2="52.3" class="style2"/><line display="inline" x1="16.9" y1="58.6" x2="42.4" y2="58.6" class="style2"/><line display="inline" x1="16.9" y1="64.8" x2="42.4" y2="64.8" class="style2"/><line display="inline" x1="16.9" y1="71.2" x2="42.4" y2="71.2" class="style2"/></g><g display="none"><rect x="3.6" y="12.5" display="inline" width="92.9" height="74.6" class="style1"/><rect x="3.6" y="12.5" display="inline" width="92.9" height="13.4" class="style1"/><circle display="inline" cx="15.1" cy="19.2" r="2.5" class="style0"/><circle display="inline" cx="27" cy="19.2" r="2.5" class="style0"/><circle display="inline" cx="38.9" cy="19.2" r="2.5" class="style0"/><path display="inline" d="M33.5 43.8L20.1 54.6c-0.7 0.6-0.6 1.6 0.1 2.1 l13.2 8.9" class="style1"/><path display="inline" d="M63.8 65.6l13.3-10.9c0.7-0.6 0.6-1.6-0.1-2.1 l-13.2-8.9" class="style1"/><line display="inline" x1="52.4" y1="38.5" x2="42.6" y2="69.9" class="style2"/></g></svg>