<?xml version="1.0" encoding="utf-8"?>
<!-- Generator: Adobe Illustrator 18.1.1, SVG Export Plug-In . SVG Version: 6.00 Build 0)  -->
<svg version="1.1" xmlns="http://www.w3.org/2000/svg" xmlns:xlink="http://www.w3.org/1999/xlink" x="0px" y="0px"
	 viewBox="0 0 100 100" enable-background="new 0 0 100 100" xml:space="preserve">
<g id="Layer_1">
	
		<rect x="3.9" y="17.4" fill="none" stroke="#010101" stroke-width="2" stroke-linecap="round" stroke-linejoin="round" stroke-miterlimit="10" width="92.5" height="64.3"/>
	
		<polygon opacity="0.1" fill="none" stroke="#010101" stroke-linecap="round" stroke-linejoin="round" stroke-miterlimit="10" points="
		3.9,69.8 37,43 39.5,45.1 55.5,59.1 71,48.4 96.4,74.1 96.4,81.6 3.9,81.6 	"/>
	<g>
		<polyline fill="#FFFFFF" points="85.3,81.6 43.5,81.6 62.3,49 64.4,45.3 66.5,49 85.3,81.6 43.5,81.6 		"/>
		<path d="M85.3,82.6H43.5c0,0,0,0,0,0c0,0,0,0,0,0c-0.2,0-0.5-0.1-0.6-0.2c0,0,0,0,0,0c0,0-0.1-0.1-0.1-0.1
			c-0.1-0.2-0.2-0.4-0.2-0.6c0-0.2,0.1-0.4,0.1-0.5l18.8-32.6l2.1-3.7c0.2-0.3,0.5-0.5,0.9-0.5c0,0,0,0,0,0c0.4,0,0.7,0.2,0.9,0.5
			l2.1,3.7l18.8,32.6c0.1,0.1,0.1,0.3,0.1,0.5c0,0.2-0.1,0.5-0.2,0.6c0,0,0,0,0,0c0,0,0,0,0,0c0,0-0.1,0.1-0.1,0.1
			C85.8,82.5,85.6,82.6,85.3,82.6C85.3,82.6,85.3,82.6,85.3,82.6C85.3,82.6,85.3,82.6,85.3,82.6z M45.2,80.6h38.4l-18-31.1l-1.2-2.2
			l-1.2,2.2L45.2,80.6z"/>
	</g>
	<g>
		<circle fill="#FFFFFF" cx="64.4" cy="70.3" r="4.4"/>
		<path d="M64.4,75.3c-2.8,0-5-2.2-5-5c0-2.8,2.2-5,5-5c2.8,0,5,2.2,5,5C69.4,73.1,67.2,75.3,64.4,75.3z M64.4,66.5
			c-2.1,0-3.8,1.7-3.8,3.8c0,2.1,1.7,3.8,3.8,3.8s3.8-1.7,3.8-3.8C68.3,68.2,66.5,66.5,64.4,66.5z"/>
	</g>
	<g>
		<path d="M93.8,82.6H8.7c-0.5,0-1-0.4-1-1c0-0.5,0.4-1,1-1h85.1c0.5,0,1,0.4,1,1C94.8,82.1,94.4,82.6,93.8,82.6z"/>
	</g>
	<g>
		<polygon fill="#FFFFFF" points="64.4,70.3 58.6,81.6 70.2,81.6 64.4,70.3 58.6,81.6 70.2,81.6 		"/>
		<path d="M70.2,82.4C70.2,82.4,70.2,82.4,70.2,82.4H58.6c-0.1,0-0.1,0-0.2,0c-0.1,0-0.2-0.1-0.3-0.1C58.1,82.2,58,82.1,58,82
			c-0.1-0.1-0.1-0.2-0.1-0.3c0,0,0-0.1,0-0.1c0-0.1,0-0.1,0-0.2c0-0.1,0-0.1,0.1-0.2l5.8-11.3c0.1-0.3,0.4-0.4,0.7-0.4
			s0.6,0.2,0.7,0.4l5.7,11.2c0.1,0.1,0.1,0.3,0.1,0.5C71,82,70.7,82.4,70.2,82.4C70.2,82.4,70.2,82.4,70.2,82.4z M59.9,80.8h9
			L64.4,72L59.9,80.8z"/>
	</g>
	<g>
		<path d="M25.7,73.4c-0.1,0-0.2,0-0.3-0.1c-1.9-1.9-2-4-1.8-5.4c0.2-1.6,1.1-3.3,2.2-4.4c1.8-1.8,2.3-5.1,0-7.4
			c-0.2-0.2-0.2-0.4,0-0.6c0.2-0.2,0.4-0.2,0.6,0c1.2,1.2,1.8,2.8,1.8,4.5c-0.1,1.5-0.7,3-1.8,4c-1,1-1.7,2.5-2,4
			c-0.2,1.3-0.1,3.1,1.6,4.7c0.2,0.2,0.2,0.4,0,0.6C25.9,73.3,25.8,73.4,25.7,73.4z"/>
	</g>
	<g>
		<path d="M25.7,73.4c-0.1,0-0.3-0.1-0.3-0.2c-1.2-2.1,0.1-4.2,1.5-4.9c1-0.6,1.6-2,0.8-3.3c-0.1-0.2,0-0.4,0.1-0.5
			c0.2-0.1,0.4,0,0.5,0.1c1,1.7,0.2,3.6-1.1,4.4c-1,0.6-2.1,2.3-1.2,3.9c0.1,0.2,0,0.4-0.1,0.5C25.9,73.4,25.8,73.4,25.7,73.4z"/>
	</g>
	<g>
		<path d="M23.9,68c-0.1,0-0.1,0-0.2-0.1c-2-1.3-1.8-3.8-0.9-5.1c0.3-0.5,0.4-1.1,0.3-1.7C23,60.7,22.8,60,22,59.6
			c-0.2-0.1-0.2-0.4-0.1-0.5c0.1-0.2,0.4-0.2,0.5-0.1c0.8,0.5,1.3,1.2,1.4,2.1c0.1,0.8,0,1.6-0.4,2.3c-0.6,1-0.9,3,0.7,4
			c0.2,0.1,0.2,0.4,0.1,0.5C24.2,67.9,24.1,68,23.9,68z"/>
	</g>
	<g>
		<path d="M67.9,56.3c-0.6,0-1-0.2-1.2-0.4c-0.2-0.1-0.3-0.2-0.6-0.2c-0.3,0-0.4,0.1-0.6,0.2c-0.2,0.2-0.6,0.4-1.2,0.4
			c-0.6,0-0.9-0.2-1.2-0.4c-0.2-0.1-0.3-0.2-0.6-0.2s-0.4,0.1-0.6,0.2c-0.2,0.2-0.6,0.4-1.2,0.4c-0.6,0-0.9-0.2-1.2-0.4
			c-0.2-0.1-0.3-0.2-0.6-0.2c-0.3,0-0.6-0.3-0.6-0.6s0.3-0.6,0.6-0.6c0.6,0,1,0.2,1.2,0.4c0.2,0.1,0.3,0.2,0.6,0.2
			c0.3,0,0.4-0.1,0.6-0.2c0.2-0.2,0.6-0.4,1.2-0.4c0.6,0,0.9,0.2,1.2,0.4c0.2,0.1,0.3,0.2,0.6,0.2c0.3,0,0.4-0.1,0.6-0.2
			c0.2-0.2,0.6-0.4,1.2-0.4c0.6,0,1,0.2,1.2,0.4c0.2,0.1,0.3,0.2,0.6,0.2c0.3,0,0.4-0.1,0.6-0.2c0.2-0.2,0.6-0.4,1.2-0.4
			c0.3,0,0.6,0.3,0.6,0.6s-0.3,0.6-0.6,0.6c-0.3,0-0.4,0.1-0.6,0.2C68.9,56.1,68.5,56.3,67.9,56.3z"/>
	</g>
	<g>
		<path d="M69.3,58.9c-0.7,0-1.1-0.2-1.5-0.3c-0.3-0.1-0.5-0.2-1-0.2c-0.5,0-0.7,0.1-1,0.2c-0.3,0.2-0.7,0.3-1.5,0.3
			c-0.7,0-1.1-0.2-1.5-0.3c-0.3-0.1-0.5-0.2-1-0.2c-0.5,0-0.7,0.1-1,0.2c-0.3,0.2-0.7,0.3-1.5,0.3c-0.7,0-1.1-0.2-1.5-0.3
			c-0.3-0.1-0.5-0.2-1-0.2c-0.3,0-0.6-0.3-0.6-0.6s0.3-0.6,0.6-0.6c0.7,0,1.1,0.2,1.5,0.3c0.3,0.1,0.5,0.2,1,0.2
			c0.5,0,0.7-0.1,1-0.2c0.3-0.2,0.7-0.3,1.5-0.3c0.7,0,1.1,0.2,1.5,0.3c0.3,0.1,0.5,0.2,1,0.2c0.5,0,0.7-0.1,1-0.2
			c0.3-0.2,0.7-0.3,1.5-0.3c0.7,0,1.1,0.2,1.5,0.3c0.3,0.1,0.5,0.2,1,0.2c0.5,0,0.7-0.1,1-0.2c0.3-0.2,0.7-0.3,1.5-0.3
			c0.3,0,0.6,0.3,0.6,0.6s-0.3,0.6-0.6,0.6c-0.5,0-0.7,0.1-1,0.2C70.4,58.7,70,58.9,69.3,58.9z"/>
	</g>
	<g>
		<path d="M59.8,79.5h-5.7c-0.3,0-0.6-0.3-0.6-0.6c0-0.3,0.3-0.6,0.6-0.6h5.7c0.3,0,0.6,0.3,0.6,0.6C60.4,79.3,60.2,79.5,59.8,79.5z
			"/>
	</g>
	<g>
		<path d="M61,77.1h-5.7c-0.3,0-0.6-0.3-0.6-0.6S55,76,55.3,76H61c0.3,0,0.6,0.3,0.6,0.6S61.3,77.1,61,77.1z"/>
	</g>
	<g>
		<path d="M62.4,74.9h-5.7c-0.3,0-0.6-0.3-0.6-0.6s0.3-0.6,0.6-0.6h5.7c0.3,0,0.6,0.3,0.6,0.6S62.7,74.9,62.4,74.9z"/>
	</g>
	<g>
		<path d="M74.6,79.5h-5.7c-0.3,0-0.6-0.3-0.6-0.6c0-0.3,0.3-0.6,0.6-0.6h5.7c0.3,0,0.6,0.3,0.6,0.6C75.2,79.3,75,79.5,74.6,79.5z"
			/>
	</g>
	<g>
		<path d="M73.3,77.1h-5.7c-0.3,0-0.6-0.3-0.6-0.6s0.3-0.6,0.6-0.6h5.7c0.3,0,0.6,0.3,0.6,0.6S73.6,77.1,73.3,77.1z"/>
	</g>
	<g>
		<path d="M72.2,74.9h-5.7c-0.3,0-0.6-0.3-0.6-0.6s0.3-0.6,0.6-0.6h5.7c0.3,0,0.6,0.3,0.6,0.6S72.5,74.9,72.2,74.9z"/>
	</g>
	<g>
		<path d="M21.7,81.9h-1.9c-0.2,0-0.3-0.1-0.4-0.3c-0.1-0.2,0-0.3,0.1-0.4l2.8-2.4l2.1-3.2c0.1-0.1,0.2-0.2,0.3-0.2
			c0.1,0,0.3,0.1,0.3,0.2l0.9,1.2c0.1,0.1,0.1,0.3,0,0.4l-1.1,2c0,0-0.1,0.1-0.1,0.1l-2.9,2.4C21.9,81.8,21.8,81.9,21.7,81.9z
			 M20.8,81.1h0.7l2.7-2.3l1-1.7l-0.4-0.6L23,79.2c0,0,0,0.1-0.1,0.1L20.8,81.1z"/>
	</g>
	<g>
		<path d="M31.6,81.9h-1.9c-0.1,0-0.2,0-0.3-0.1l-2.9-2.4c0,0-0.1-0.1-0.1-0.1l-1.1-2c-0.1-0.1-0.1-0.3,0-0.4l0.9-1.2
			c0.1-0.1,0.2-0.2,0.3-0.2c0.1,0,0.2,0.1,0.3,0.2l2.1,3.2l2.8,2.4c0.1,0.1,0.2,0.3,0.1,0.4C31.9,81.8,31.8,81.9,31.6,81.9z
			 M29.8,81.1h0.7l-2.1-1.7c0,0-0.1-0.1-0.1-0.1l-1.8-2.8l-0.4,0.6l1,1.7L29.8,81.1z"/>
	</g>
	<g>
		<path d="M25.6,81.6C25.6,81.6,25.6,81.6,25.6,81.6l0-2.5c0,0,0,0,0,0c0,0,0,0,0,0L25.6,81.6C25.7,81.6,25.7,81.6,25.6,81.6z"/>
	</g>
	<g>
		<path d="M25.3,81.9C25.2,81.9,25.2,81.9,25.3,81.9l0-2.5c0,0,0,0,0,0c0,0,0,0,0,0L25.3,81.9C25.3,81.9,25.3,81.9,25.3,81.9z"/>
	</g>
	<g>
		<path d="M24.9,82.2C24.9,82.2,24.8,82.1,24.9,82.2l0-2.5c0,0,0,0,0,0s0,0,0,0L24.9,82.2C24.9,82.1,24.9,82.2,24.9,82.2z"/>
	</g>
	<g>
		<path d="M24.5,82.4C24.5,82.4,24.5,82.4,24.5,82.4l0-2.5c0,0,0,0,0,0c0,0,0,0,0,0L24.5,82.4C24.5,82.4,24.5,82.4,24.5,82.4z"/>
	</g>
	<g>
		<path d="M25.6,81.6C25.6,81.6,25.6,81.6,25.6,81.6l0-2.5c0,0,0,0,0,0c0,0,0,0,0,0L25.6,81.6C25.7,81.6,25.7,81.6,25.6,81.6z"/>
	</g>
	<g>
		<path d="M26,81.9C26,81.9,26,81.9,26,81.9l0-2.5c0,0,0,0,0,0c0,0,0,0,0,0L26,81.9C26.1,81.9,26,81.9,26,81.9z"/>
	</g>
	<g>
		<path d="M26.4,82.2C26.4,82.2,26.4,82.1,26.4,82.2l0-2.5c0,0,0,0,0,0c0,0,0,0,0,0L26.4,82.2C26.4,82.1,26.4,82.2,26.4,82.2z"/>
	</g>
	<g>
		<path d="M26.8,82.4C26.8,82.4,26.7,82.4,26.8,82.4l0-2.5c0,0,0,0,0,0s0,0,0,0L26.8,82.4C26.8,82.4,26.8,82.4,26.8,82.4z"/>
	</g>
	<g>
		<path d="M62.3,49.6c-0.1,0-0.2,0-0.3-0.1c-0.3-0.2-0.4-0.5-0.2-0.8l4.1-7.4c0.2-0.3,0.5-0.4,0.8-0.2c0.3,0.2,0.4,0.5,0.2,0.8
			l-4.1,7.4C62.7,49.5,62.5,49.6,62.3,49.6z"/>
	</g>
	<g>
		<path d="M66.5,49.6c-0.2,0-0.4-0.1-0.5-0.3l-4.2-7.4c-0.2-0.3-0.1-0.6,0.2-0.8c0.3-0.2,0.6-0.1,0.8,0.2l4.2,7.4
			c0.2,0.3,0.1,0.6-0.2,0.8C66.7,49.5,66.6,49.6,66.5,49.6z"/>
	</g>
	<g>
		<g>
			<path d="M21.8,33.2c-2,0-3.6-1.6-3.6-3.6s1.6-3.6,3.6-3.6s3.6,1.6,3.6,3.6S23.8,33.2,21.8,33.2z M21.8,26.7
				c-1.5,0-2.8,1.3-2.8,2.8c0,1.5,1.3,2.8,2.8,2.8c1.5,0,2.8-1.3,2.8-2.8C24.6,28,23.4,26.7,21.8,26.7z"/>
		</g>
		<g>
			<g>
				<path d="M22.7,25C22.7,25,22.7,25,22.7,25c-0.3-0.1-0.5-0.3-0.4-0.5l0.3-1.7c0-0.2,0.3-0.4,0.5-0.3c0.2,0,0.4,0.3,0.3,0.5
					l-0.3,1.7C23.1,24.8,23,25,22.7,25z"/>
			</g>
			<g>
				<path d="M20.1,25.2c-0.2,0-0.3-0.1-0.4-0.3l-0.6-1.6c-0.1-0.2,0-0.5,0.3-0.5c0.2-0.1,0.5,0,0.5,0.3l0.6,1.6
					c0.1,0.2,0,0.5-0.3,0.5C20.2,25.2,20.2,25.2,20.1,25.2z"/>
			</g>
			<g>
				<path d="M18,26.7c-0.1,0-0.2,0-0.3-0.1l-1.3-1.1c-0.2-0.2-0.2-0.4,0-0.6c0.2-0.2,0.4-0.2,0.6,0l1.3,1.1c0.2,0.2,0.2,0.4,0,0.6
					C18.2,26.6,18.1,26.7,18,26.7z"/>
			</g>
			<g>
				<path d="M16.9,29C16.9,29,16.8,29,16.9,29l-1.8-0.3c-0.2,0-0.4-0.3-0.3-0.5c0-0.2,0.3-0.4,0.5-0.3l1.7,0.3
					c0.2,0,0.4,0.3,0.3,0.5C17.3,28.9,17.1,29,16.9,29z"/>
			</g>
			<g>
				<path d="M15.5,32.2c-0.2,0-0.3-0.1-0.4-0.3c-0.1-0.2,0-0.5,0.3-0.5l1.6-0.6c0.2-0.1,0.5,0,0.5,0.3c0.1,0.2,0,0.5-0.3,0.5
					l-1.6,0.6C15.6,32.2,15.5,32.2,15.5,32.2z"/>
			</g>
			<g>
				<path d="M17.4,35.1c-0.1,0-0.2,0-0.3-0.1c-0.2-0.2-0.2-0.4,0-0.6l1.1-1.3c0.2-0.2,0.4-0.2,0.6,0c0.2,0.2,0.2,0.4,0,0.6l-1.1,1.3
					C17.7,35,17.6,35.1,17.4,35.1z"/>
			</g>
			<g>
				<path d="M20.6,36.6C20.6,36.6,20.6,36.6,20.6,36.6c-0.3-0.1-0.5-0.3-0.4-0.5l0.3-1.7c0-0.2,0.3-0.4,0.5-0.3
					c0.2,0,0.4,0.3,0.3,0.5L21,36.2C21,36.4,20.8,36.6,20.6,36.6z"/>
			</g>
			<g>
				<path d="M24.1,36.3c-0.2,0-0.3-0.1-0.4-0.3l-0.6-1.6c-0.1-0.2,0-0.5,0.3-0.5c0.2-0.1,0.5,0,0.5,0.3l0.6,1.6
					c0.1,0.2,0,0.5-0.3,0.5C24.2,36.3,24.1,36.3,24.1,36.3z"/>
			</g>
			<g>
				<path d="M27,34.3c-0.1,0-0.2,0-0.3-0.1l-1.3-1.1c-0.2-0.2-0.2-0.4,0-0.6c0.2-0.2,0.4-0.2,0.6,0l1.3,1.1c0.2,0.2,0.2,0.4,0,0.6
					C27.2,34.3,27.1,34.3,27,34.3z"/>
			</g>
			<g>
				<path d="M28.5,31.2C28.5,31.2,28.4,31.2,28.5,31.2l-1.8-0.3c-0.2,0-0.4-0.3-0.3-0.5c0-0.2,0.3-0.4,0.5-0.3l1.7,0.3
					c0.2,0,0.4,0.3,0.3,0.5C28.9,31,28.7,31.2,28.5,31.2z"/>
			</g>
			<g>
				<path d="M26.6,28.3c-0.2,0-0.3-0.1-0.4-0.3c-0.1-0.2,0-0.5,0.3-0.5l1.6-0.6c0.2-0.1,0.5,0,0.5,0.3c0.1,0.2,0,0.5-0.3,0.5
					l-1.6,0.6C26.7,28.2,26.6,28.3,26.6,28.3z"/>
			</g>
			<g>
				<path d="M25.1,26.1c-0.1,0-0.2,0-0.3-0.1c-0.2-0.2-0.2-0.4,0-0.6l1.1-1.3c0.2-0.2,0.4-0.2,0.6,0c0.2,0.2,0.2,0.4,0,0.6L25.4,26
					C25.3,26.1,25.2,26.1,25.1,26.1z"/>
			</g>
		</g>
		<g>
			<g>
				<path d="M21.6,25.4C21.5,25.4,21.5,25.4,21.6,25.4l-0.1-1.2c0,0,0,0,0,0c0,0,0,0,0,0L21.6,25.4C21.6,25.4,21.6,25.4,21.6,25.4
					C21.6,25.4,21.6,25.4,21.6,25.4z"/>
			</g>
			<g>
				<path d="M19.5,26.1C19.5,26.1,19.5,26.1,19.5,26.1l-0.7-1c0,0,0,0,0,0c0,0,0,0,0,0L19.5,26.1C19.6,26,19.5,26.1,19.5,26.1
					C19.5,26.1,19.5,26.1,19.5,26.1z"/>
			</g>
			<g>
				<path d="M18.1,27.7C18.1,27.7,18.1,27.7,18.1,27.7L17,27.2c0,0,0,0,0,0c0,0,0,0,0,0L18.1,27.7C18.1,27.6,18.1,27.7,18.1,27.7
					C18.1,27.7,18.1,27.7,18.1,27.7z"/>
			</g>
			<g>
				<path d="M16.5,29.9C16.5,29.9,16.5,29.9,16.5,29.9C16.5,29.8,16.5,29.8,16.5,29.9l1.2-0.1c0,0,0,0,0,0c0,0,0,0,0,0L16.5,29.9
					C16.5,29.9,16.5,29.9,16.5,29.9z"/>
			</g>
			<g>
				<path d="M17.4,32.5C17.4,32.5,17.4,32.5,17.4,32.5C17.3,32.5,17.3,32.5,17.4,32.5l1-0.7c0,0,0,0,0,0c0,0,0,0,0,0L17.4,32.5
					C17.4,32.5,17.4,32.5,17.4,32.5z"/>
			</g>
			<g>
				<path d="M19.5,34.3C19.5,34.3,19.5,34.3,19.5,34.3C19.4,34.3,19.4,34.3,19.5,34.3l0.5-1.1c0,0,0,0,0,0c0,0,0,0,0,0L19.5,34.3
					C19.5,34.3,19.5,34.3,19.5,34.3z"/>
			</g>
			<g>
				<path d="M22.2,34.9C22.2,34.9,22.1,34.9,22.2,34.9l-0.1-1.2c0,0,0,0,0,0c0,0,0,0,0,0L22.2,34.9C22.2,34.9,22.2,34.9,22.2,34.9
					C22.2,34.9,22.2,34.9,22.2,34.9z"/>
			</g>
			<g>
				<path d="M24.8,34C24.8,34,24.8,34,24.8,34l-0.7-1c0,0,0,0,0,0c0,0,0,0,0,0L24.8,34C24.8,34,24.8,34,24.8,34
					C24.8,34,24.8,34,24.8,34z"/>
			</g>
			<g>
				<path d="M26.6,31.9C26.6,31.9,26.6,31.9,26.6,31.9l-1.1-0.5c0,0,0,0,0,0c0,0,0,0,0,0L26.6,31.9C26.7,31.9,26.7,31.9,26.6,31.9
					C26.7,31.9,26.6,31.9,26.6,31.9z"/>
			</g>
			<g>
				<path d="M26,29.3C26,29.3,26,29.3,26,29.3C26,29.2,26,29.2,26,29.3l1.2-0.1c0,0,0,0,0,0c0,0,0,0,0,0c0,0,0,0,0,0L26,29.3
					C26,29.3,26,29.3,26,29.3z"/>
			</g>
			<g>
				<path d="M25.3,27.2C25.3,27.2,25.3,27.2,25.3,27.2C25.3,27.2,25.3,27.2,25.3,27.2l1-0.7c0,0,0,0,0,0c0,0,0,0,0,0L25.3,27.2
					C25.3,27.2,25.3,27.2,25.3,27.2z"/>
			</g>
			<g>
				<path d="M23.7,25.8C23.7,25.8,23.7,25.8,23.7,25.8C23.7,25.8,23.6,25.8,23.7,25.8l0.5-1.1c0,0,0,0,0,0c0,0,0,0,0,0L23.7,25.8
					C23.7,25.8,23.7,25.8,23.7,25.8z"/>
			</g>
		</g>
	</g>
</g>
<g id="pen-tool" display="none">
	<rect x="17.1" y="1.8" display="inline" fill="#010101" width="8.1" height="8.1"/>
	<rect x="73.7" y="1.8" display="inline" fill="#010101" width="8.1" height="8.1"/>
	<line display="inline" fill="none" stroke="#010101" stroke-miterlimit="10" x1="25.2" y1="5.9" x2="44.3" y2="5.9"/>
	<line display="inline" fill="none" stroke="#010101" stroke-miterlimit="10" x1="54.7" y1="5.9" x2="73.7" y2="5.9"/>
	<path display="inline" fill="none" stroke="#010101" stroke-miterlimit="10" d="M67.1,91.8H31.8c-1.5,0-2.7-1.2-2.7-2.7v-8.5
		c0-1.5,1.2-2.7,2.7-2.7h35.2c1.5,0,2.7,1.2,2.7,2.7v8.5C69.8,90.6,68.6,91.8,67.1,91.8z"/>
	<rect x="33.8" y="91.8" display="inline" fill="none" stroke="#010101" stroke-miterlimit="10" width="31.3" height="7.1"/>
	<path display="inline" fill="none" stroke="#010101" stroke-miterlimit="10" d="M49.1,11.7L23.5,57.3c0,0,4.1,3.2,7.7,6.8
		c3.6,3.6,4.7,9.1,2.6,13.7l0,0l31.3,0l-0.3-0.8c-1.7-4.4-0.7-9.4,2.5-12.8c3.5-3.7,7.8-7,7.8-7L49.8,11.7
		C49.6,11.5,49.3,11.5,49.1,11.7z"/>
	<line display="inline" fill="none" stroke="#010101" stroke-miterlimit="10" x1="49.5" y1="11.1" x2="49.5" y2="52.8"/>
	<circle display="inline" fill="none" stroke="#010101" stroke-miterlimit="10" cx="49.5" cy="57.7" r="5.3"/>
	<rect x="44.2" y="0.6" display="inline" fill="none" stroke="#010101" stroke-miterlimit="10" width="10.5" height="10.5"/>
</g>
<g id="web-design" display="none">
	<rect x="4.5" y="9.9" display="inline" fill="none" stroke="#010101" stroke-miterlimit="10" width="88.1" height="79.8"/>
	<rect x="4.5" y="9.9" display="inline" fill="none" stroke="#010101" stroke-miterlimit="10" width="88.1" height="21.7"/>
	
		<rect x="53.1" y="46.1" display="inline" fill="none" stroke="#010101" stroke-linecap="round" stroke-linejoin="round" stroke-miterlimit="10" width="27.4" height="27.7"/>
	<path display="inline" fill="#010101" d="M16.9,23.7h-3c-0.8,0-1.5-0.7-1.5-1.5v-3c0-0.8,0.7-1.5,1.5-1.5h3c0.8,0,1.5,0.7,1.5,1.5
		v3C18.4,23,17.8,23.7,16.9,23.7z"/>
	<path display="inline" fill="#010101" d="M27.2,23.7h-3c-0.8,0-1.5-0.7-1.5-1.5v-3c0-0.8,0.7-1.5,1.5-1.5h3c0.8,0,1.5,0.7,1.5,1.5
		v3C28.7,23,28,23.7,27.2,23.7z"/>
	<path display="inline" fill="#010101" d="M37.4,23.7h-3c-0.8,0-1.5-0.7-1.5-1.5v-3c0-0.8,0.7-1.5,1.5-1.5h3c0.8,0,1.5,0.7,1.5,1.5
		v3C38.9,23,38.3,23.7,37.4,23.7z"/>
	
		<line display="inline" fill="none" stroke="#010101" stroke-linecap="round" stroke-linejoin="round" stroke-miterlimit="10" x1="16.9" y1="46.1" x2="42.4" y2="46.1"/>
	
		<line display="inline" fill="none" stroke="#010101" stroke-linecap="round" stroke-linejoin="round" stroke-miterlimit="10" x1="16.9" y1="52.3" x2="42.4" y2="52.3"/>
	
		<line display="inline" fill="none" stroke="#010101" stroke-linecap="round" stroke-linejoin="round" stroke-miterlimit="10" x1="16.9" y1="58.6" x2="42.4" y2="58.6"/>
	
		<line display="inline" fill="none" stroke="#010101" stroke-linecap="round" stroke-linejoin="round" stroke-miterlimit="10" x1="16.9" y1="64.8" x2="42.4" y2="64.8"/>
	
		<line display="inline" fill="none" stroke="#010101" stroke-linecap="round" stroke-linejoin="round" stroke-miterlimit="10" x1="16.9" y1="71.2" x2="42.4" y2="71.2"/>
</g>
<g id="front-end" display="none">
	<rect x="3.6" y="12.5" display="inline" fill="none" stroke="#010101" stroke-miterlimit="10" width="92.9" height="74.6"/>
	<rect x="3.6" y="12.5" display="inline" fill="none" stroke="#010101" stroke-miterlimit="10" width="92.9" height="13.4"/>
	<circle display="inline" fill="#010101" cx="15.1" cy="19.2" r="2.5"/>
	<circle display="inline" fill="#010101" cx="27" cy="19.2" r="2.5"/>
	<circle display="inline" fill="#010101" cx="38.9" cy="19.2" r="2.5"/>
	<path display="inline" fill="none" stroke="#010101" stroke-miterlimit="10" d="M33.5,43.8L20.1,54.6c-0.7,0.6-0.6,1.6,0.1,2.1
		l13.2,8.9"/>
	<path display="inline" fill="none" stroke="#010101" stroke-miterlimit="10" d="M63.8,65.6l13.3-10.9c0.7-0.6,0.6-1.6-0.1-2.1
		l-13.2-8.9"/>
	
		<line display="inline" fill="none" stroke="#010101" stroke-linecap="round" stroke-linejoin="round" stroke-miterlimit="10" x1="52.4" y1="38.5" x2="42.6" y2="69.9"/>
</g>
<g id="ui_x2F_ux-design" display="none">
	
		<polygon display="inline" fill="none" stroke="#010101" stroke-linecap="round" stroke-linejoin="round" stroke-miterlimit="10" points="
		5.3,4.6 96.5,95.8 5.3,95.8 	"/>
	
		<polygon display="inline" fill="none" stroke="#010101" stroke-linecap="round" stroke-linejoin="round" stroke-miterlimit="10" points="
		24.5,45.7 24.5,81.2 60,81.2 	"/>
	
		<line display="inline" fill="none" stroke="#010101" stroke-linecap="round" stroke-linejoin="round" stroke-miterlimit="10" x1="5.3" y1="33.9" x2="15.9" y2="33.9"/>
	
		<line display="inline" fill="none" stroke="#010101" stroke-linecap="round" stroke-linejoin="round" stroke-miterlimit="10" x1="5.3" y1="45.7" x2="13" y2="45.7"/>
	
		<line display="inline" fill="none" stroke="#010101" stroke-linecap="round" stroke-linejoin="round" stroke-miterlimit="10" x1="5.3" y1="69.3" x2="13" y2="69.3"/>
	
		<line display="inline" fill="none" stroke="#010101" stroke-linecap="round" stroke-linejoin="round" stroke-miterlimit="10" x1="5.3" y1="57.2" x2="15.9" y2="57.2"/>
	
		<line display="inline" fill="none" stroke="#010101" stroke-linecap="round" stroke-linejoin="round" stroke-miterlimit="10" x1="5.3" y1="81.2" x2="15.9" y2="81.2"/>
	
		<polygon display="inline" fill="none" stroke="#010101" stroke-linecap="round" stroke-linejoin="round" stroke-miterlimit="10" points="
		42.2,2.8 32.6,12.4 85.7,65.5 95.2,65.5 95.2,57.2 	"/>
	
		<rect x="35.5" y="5.7" transform="matrix(-0.7071 0.7071 -0.7071 -0.7071 80.8406 -8.5007)" display="inline" fill="none" stroke="#010101" stroke-linecap="round" stroke-linejoin="round" stroke-miterlimit="10" width="13.4" height="13.6"/>
</g>
<g id="illustration" display="none">
	
		<rect x="2.6" y="16.1" display="inline" fill="none" stroke="#010101" stroke-linecap="round" stroke-linejoin="round" stroke-miterlimit="10" width="94.8" height="65.8"/>
	
		<polygon display="inline" fill="none" stroke="#010101" stroke-linecap="round" stroke-linejoin="round" stroke-miterlimit="10" points="
		2.6,69.8 36.6,42.4 55.5,58.9 65.5,47.7 97.4,74.2 97.4,81.9 2.6,81.9 	"/>
	
		<circle display="inline" fill="none" stroke="#010101" stroke-linecap="round" stroke-linejoin="round" stroke-miterlimit="10" cx="77.6" cy="34.4" r="8.3"/>
</g>
<g id="pencil" display="none">
	
		<rect x="27.4" y="28.9" display="inline" fill="none" stroke="#010101" stroke-linecap="round" stroke-linejoin="round" stroke-miterlimit="10" width="45.2" height="54.2"/>
	
		<rect x="27.4" y="72.9" display="inline" fill="none" stroke="#010101" stroke-linecap="round" stroke-linejoin="round" stroke-miterlimit="10" width="45.2" height="10.2"/>
	
		<polygon display="inline" fill="none" stroke="#010101" stroke-linecap="round" stroke-linejoin="round" stroke-miterlimit="10" points="
		50,3 27.4,28.9 72.6,28.9 	"/>
	<polyline display="inline" fill="none" stroke="#010101" stroke-miterlimit="10" points="39.5,15 50,17.4 60.7,15 	"/>
	<path display="inline" fill="none" stroke="#010101" stroke-linecap="round" stroke-linejoin="round" stroke-miterlimit="10" d="
		M29.8,83.1c0,0,5.4,13.9,20.2,13.9s20.2-13.9,20.2-13.9H29.8z"/>
	
		<line display="inline" fill="none" stroke="#010101" stroke-linecap="round" stroke-linejoin="round" stroke-miterlimit="10" x1="43.1" y1="28.9" x2="43.1" y2="72.9"/>
	
		<line display="inline" fill="none" stroke="#010101" stroke-linecap="round" stroke-linejoin="round" stroke-miterlimit="10" x1="57.3" y1="28.9" x2="57.3" y2="72.9"/>
</g>
<g id="typography" display="none">
	<g display="inline">
		<path fill="none" stroke="#000000" d="M55.3,65c0,1.6,0.2,3,0.7,3.9c0.5,1,1.1,1.8,1.8,2.3c0.8,0.5,1.7,0.9,2.7,1.1
			c1.1,0.2,2.2,0.3,3.3,0.3h2.4V77H33.7v-4.4h2.4c1.2,0,2.3-0.1,3.3-0.2c1-0.2,2-0.5,2.7-0.9c0.8-0.5,1.4-1.2,1.9-2.1
			c0.5-0.9,0.7-2.2,0.7-3.7V7.3h-10c-1.5,0-2.8,0.2-3.9,0.7c-1,0.5-1.9,1.1-2.6,1.9c-0.7,0.8-1.2,1.7-1.5,2.7
			c-0.3,1-0.6,2.1-0.7,3.3l-0.6,4.5h-5.4l0.5-18.3h59.1l0.5,18.3h-5.4l-0.5-4.5c-0.1-1.2-0.4-2.3-0.7-3.3c-0.3-1-0.8-2-1.5-2.7
			c-0.6-0.8-1.5-1.4-2.6-1.9c-1.1-0.5-2.4-0.7-3.9-0.7H55.3V65z"/>
	</g>
	<polygon display="inline" fill="none" stroke="#000000" points="80.2,88 74.4,84.7 74.4,88.8 25.8,88.8 25.8,84.7 20.1,88 
		14.3,91.3 20.1,94.6 25.8,97.9 25.8,93.6 74.4,93.6 74.4,97.9 80.2,94.6 85.9,91.3 	"/>
</g>
<g id="web-design_1_" display="none">
	<g display="inline">
		<rect x="5.1" y="10.5" fill="none" stroke="#010101" stroke-miterlimit="10" width="89.7" height="74.1"/>
		<rect x="5.1" y="10.5" fill="none" stroke="#010101" stroke-miterlimit="10" width="89.7" height="14.6"/>
		<rect x="5.1" y="84.6" fill="none" stroke="#010101" stroke-miterlimit="10" width="89.7" height="7.3"/>
		<rect x="54.7" y="41.5" fill="none" stroke="#010101" stroke-miterlimit="10" width="28" height="28.2"/>
		<path fill="#010101" d="M11.8,19.9H9.3c-0.5,0-0.8-0.4-0.8-0.8v-2.4c0-0.5,0.4-0.8,0.8-0.8h2.4c0.5,0,0.8,0.4,0.8,0.8V19
			C12.6,19.5,12.2,19.9,11.8,19.9z"/>
		<path fill="#010101" d="M19,19.9h-2.4c-0.5,0-0.8-0.4-0.8-0.8v-2.4c0-0.5,0.4-0.8,0.8-0.8H19c0.5,0,0.8,0.4,0.8,0.8V19
			C19.9,19.5,19.5,19.9,19,19.9z"/>
		<path fill="#010101" d="M26.3,19.9h-2.4c-0.5,0-0.8-0.4-0.8-0.8v-2.4c0-0.5,0.4-0.8,0.8-0.8h2.4c0.5,0,0.8,0.4,0.8,0.8V19
			C27.2,19.5,26.8,19.9,26.3,19.9z"/>
		
			<line fill="none" stroke="#010101" stroke-linecap="round" stroke-linejoin="round" stroke-miterlimit="10" x1="17.8" y1="41.5" x2="43.8" y2="41.5"/>
		
			<line fill="none" stroke="#010101" stroke-linecap="round" stroke-linejoin="round" stroke-miterlimit="10" x1="17.8" y1="69.7" x2="43.8" y2="69.7"/>
		
			<line fill="none" stroke="#010101" stroke-linecap="round" stroke-linejoin="round" stroke-miterlimit="10" x1="17.8" y1="48.6" x2="43.8" y2="48.6"/>
		
			<line fill="none" stroke="#010101" stroke-linecap="round" stroke-linejoin="round" stroke-miterlimit="10" x1="17.8" y1="55.6" x2="43.8" y2="55.6"/>
		
			<line fill="none" stroke="#010101" stroke-linecap="round" stroke-linejoin="round" stroke-miterlimit="10" x1="17.8" y1="62.7" x2="43.8" y2="62.7"/>
		<path fill="#010101" d="M88.4,19.9H31.6c-0.5,0-0.8-0.4-0.8-0.8v-2.4c0-0.5,0.4-0.8,0.8-0.8h56.7c0.5,0,0.8,0.4,0.8,0.8V19
			C89.2,19.5,88.8,19.9,88.4,19.9z"/>
	</g>
</g>
<g id="illustration_1_">
</g>
</svg>
