<svg xmlns="http://www.w3.org/2000/svg" xmlns:xlink="http://www.w3.org/1999/xlink" version="1.1" x="0px" y="0px" viewBox="0 0 360 360" enable-background="new 0 0 360 360" xml:space="preserve">
	<defs>
		<style>
			.thanks, .you {
			    stroke-dasharray: 5000;
			    stroke-dashoffset: 0;
			    -webkit-animation: dash 8s linear forwards;
			    -o-animation: dash 8s linear forwards;
			    -moz-animation: dash 8s linear forwards;
			    animation: dash 8s linear forwards;
			    animation-fill-mode: forwards;
			}
			@-webkit-keyframes dash {
			    0% {
			        stroke-dashoffset: 5000;
			        fill: rgba(0, 90, 156, 0);
			        stroke: rgba(0, 90, 156, 1);
			    }
			    100% {
			        stroke-dashoffset: 0;
			        fill: rgba(0, 90, 156, 1);
			        stroke: rgba(0, 90, 156, 1);
			    }
			}

		</style>
	</defs>
	<path class="thanks" d="M120 80.7c-0.9 0-1.6 0.7-1.4 1.6c0.1 0.8 0 2-0.8 3.7c-2.1 5-38.4 77.1-38.4 77.1s-4.1 8.5 2.8 8.5c2.8 0 5.1 0.2 7-0.2 c1.3-0.2 1.6-2 0.5-2.6c-0.8-0.5-1.3-1.4-0.6-3c1.4-3.4 38.9-75.3 40-77.5c1.9-3.8 1.9-7.6-3.1-7.6C123.7 80.7 121.6 80.7 120 80.7z "/><path class="thanks" d="M136.1 91.7c-0.9 0-1.7 0.8-1.6 1.7c0.1 0.8-0.1 1.9-0.8 3.6c-2.1 5-34.1 68.1-34.1 68.1s-3.5 6.5 3.8 6.5h4.6 c1.1 0 2-1 1.8-2.1c-0.2-0.9-0.1-2 0.5-3.6c1.4-3.4 33.6-64.3 34.7-66.5c1.9-3.8 1.9-7.6-3.1-7.6C139.7 91.7 137.7 91.7 136.1 91.7z "/>
	<path class="thanks" d="M265.1 72.9c-62.2 0-86.1 35-160.1 35c-47 0-30.7-52.6-0.7-43c23.5 7.5 28-29 3.2-29c-65.8 0-66.8 74.7 0 74.7 c71.5 0 95.2-33.2 157.1-35c76.3-2.2 66.3 90.2-1.4 90.8c-15.7 0.2-21.8-4.9-23.8-7.4c20.7-9.8 19.5-17.6 15.8-21.4 c-3.4-3.6-9.7-1.4-11.7-0.5c9.2-17.5 19.3-36.6 19.9-37.8c1.9-3.8 1.9-7.6-3.1-7.6c-1.9 0-3.4 0-4.5 0c-0.7 0-1.2 0.7-1.1 1.3 c0.2 0.8 0.1 2-0.7 4c-1.6 3.8-20.6 40.4-30 58.3l0 0c-10.9 16.8-12.7 12.8-10.9 8.8c3.2-7.5 8.9-18.3 12.1-24.4 c1.9-3.6 1.4-6.8-3.4-6.2c-3.4 0.4-12.1 3.1-19.7 6.9c0.1-0.2 0.2-0.5 0.4-0.7c1.9-3.6 1.4-6.8-3.4-6.2c-4.5 0.6-8.4 3.1-6.9 2.9 c1.3-0.2 0.3 2-1.3 4.7c-1.7 2.8-4.3 7.2-7.5 14.5c-10.8 16.5-12.5 12.5-10.7 8.5c3.2-7.5 8.9-18.3 12.1-24.4 c1.9-3.6 1.4-6.8-3.4-6.2c-4.5 0.6-8.4 3.1-6.9 2.9c0.5-0.1 0.7 0.2 0.6 0.7c-9-2.7-15.8 0-25.3 14.9c-0.8 1.3-1.5 2.5-2.1 3.7 c-10.7 16.4-12.4 12.4-10.7 8.4c3.2-7.5 8.9-18.3 12.1-24.4c1.9-3.6 1.4-6.8-3.4-6.2c-4.5 0.6-18.4 5.1-26.5 10.8l-1 2.4 c6.6-3.9 17.4-8.3 18.9-8.5c1.3-0.2 2.1 0.1 0.5 2.8c-1.7 2.9-4.6 7.6-8.1 15.6c-4.6 10.5-3.7 15.4 3.5 15.4 c5.2 0 10.1-6.2 12.8-10.7c-1.3 7.4 3.7 10.7 8.5 10.7c4.2 0 6.8-1.7 8.3-3.3c0.7 2.2 2.6 3.3 6 3.3c4.9 0 9.5-5.5 12.3-9.8 c-1.9 6.6-0.2 9.8 5.5 9.8c3.5 0 3.7-1 3.7-1c-1.8-0.2-1.3-3 0.4-7c2.6-6.1 6.9-14.4 10.1-20.6c5.7-2.7 11.6-5 12.7-5.2 c1.3-0.2 2.1 0.1 0.5 2.8c-1.7 2.9-4.6 7.6-8.1 15.6c-4.6 10.5-3.7 15.4 3.5 15.4c3.5 0 6.7-2.7 9.4-5.8c-0.8 1.9-1.5 5.3 3.9 5.3 h5.1c0.8 0 1.3-0.8 1-1.5c-0.4-0.9-0.5-2.2 0.3-4.2c0.1-0.4 0.6-1.4 1.4-2.9c0 0 0.1 0 0.1 0c1.5 2.6 7.5 8.7 31.4 8.7 c9.3 0 38.3-3.7 52.5-27C328.2 121.2 325.6 72.9 265.1 72.9z M165 156.7c-0.9 2.2-1.6 4.1-2.1 5.8c-6.5 3.8-11.4-5.4-5.1-15.9 c5.7-9.4 13.4-8.3 16.1-6.9c-0.3 0.5-0.5 1-0.8 1.5C171.3 144 168.5 148.7 165 156.7z M240.5 142.9c1.8-1.7 7.2-6.3 11.1-3.4 c4.6 3.4-3.3 12.9-17.6 16C235.8 151.8 238.1 147.5 240.5 142.9z"/>
	<g>
		<path class="you" d="M298.1 248.9c-32.9 22.2-68.5 9.6-106.3-6c17.4-30.2 26.3-58.5 26.3-58.5c-11-9.5-11.6-2-11.6-2s-4 15.9-12.4 36.5 c-0.5 1-0.6 1.2-0.9 1.5c-3.7 6.2-15.3 4.5-12.8-2.7s16.2-30.1 13.7-33.8c-3.6-5.3-11.5 0.6-11.5 0.6l-4.9 3l0 0 c-2.2 1.3-5.1 3-7.8 4.6c-0.1-6.6-3.8-13.8-12.5-13.8c-8.9 0-13 6.9-12.9 11.6c0.2 6.4 4.2 11.4 12.3 11.3c2.5 0 5.5-1.1 8.4-2.7 c-1.4 3.9-6.5 17.2-16.2 27.3c-16.8-5.7-33.9-9.8-51.4-9.8c-0.3 0-0.6 0-0.9 0c-0.2-4.8 0.5-9.9 2-14.8c5.6-19.1-22.9-22.4-28-0.1 c-1.5 6.6-1.7 13.4-0.4 19.7c-50.1 19.8-41.6 94 27.3 94c39.4 0 69.4-32.2 89.5-64.6c33.7 19.8 67.7 38.7 118.9 22.5 C335.6 262.5 317.1 236 298.1 248.9z M157.7 184.4c3.9-1.1 9.7 2.7 8.8 9.9c-0.3 0.2-0.5 0.3-0.8 0.5 C150.3 203.7 148.2 187.1 157.7 184.4z M100.1 218.9c17.1 0 32.1 4 46.3 9.9c-6.3 5.6-14.2 9.7-23.9 9.7c-16.9 0-24-8.7-25.4-19.5 C98.1 218.9 99.1 218.9 100.1 218.9z M97.7 312.3c-65.2 0-74.2-68.4-26.5-88.1c3.9 13.9 15.3 24.8 34.3 24.8 c21 0 35.5-8.3 45.2-18.3c10.4 4.7 20.4 10.4 30.3 16.2C163.3 279.4 136 312.3 97.7 312.3z M191.2 225.8c-2 4.7-4.1 9-6.6 14.1 c-10.2-4.2-20.6-8.6-31.1-12.3c12.1-14 15.7-29.7 15.7-29.7c0.2-0.5 0.4-1.1 0.5-1.7c5.5-3.6 10.4-7.7 12.3-8.5l0 0 c3.8-2-3.4 10.5-8.5 21.1c-5.1 10.6-1 19.4 10.3 18.6c2.7-0.2 5.1-0.9 6.8-2.1C190.9 225 191.3 225.4 191.2 225.8z"/>
		<path class="you" d="M228.9 227.5c12.4 0.7 18.9-8.9 22.2-19.8c0.5-1.6 0.8-3.2 1.1-4.8c2.9-0.6 6.3-2.2 9.9-5.3c-1.7 3-3.8 7.1-6.3 12.7 c-4.9 11.1-3.9 16.3 3.6 16.3c5.3 0 10.3-6.2 13.3-10.8c-2.2 7.3-0.4 10.8 5.7 10.8c8.6 0 16.2-15.9 16.2-15.9 c1.2-2.3-0.3-1.8-0.3-1.8c-11.5 17.8-13.4 13.5-11.5 9.3c3.4-7.9 9.4-19.4 12.8-25.7c2-3.8 1.5-7.2-3.6-6.5c-4.8 0.6-8.9 3.2-7.3 3 c1.4-0.2 0.3 2.1-1.4 5c-1.7 2.9-4.5 7.5-7.9 15c-0.1 0-0.1 0-0.1 0c-11.5 17.8-13.4 13.5-11.5 9.3c3.4-7.9 9.4-19.4 12.8-25.7 c2-3.8 1.5-7.2-3.6-6.5c-4.8 0.6-8.9 3.2-7.3 3c1.4-0.2 0.3 2-1.3 4.9c-1.2 0.8-2.5 1.7-3.8 2.6c-3.3 2.2-5.8 3.8-8 4.3 c0.1-2 0-4-0.4-5.8c0-0.2-0.1-0.4-0.2-0.7c-1.4-5.2-5.4-9-13-9.1C216 184.8 203 225.9 228.9 227.5z M249 194.6 c0.2 0.4 0.3 0.8 0.4 1.2c0.3 1.2 0.4 3 0.3 5c-0.7-0.2-1.4-0.6-2.1-1.1C244 196.7 247.5 191.3 249 194.6z M239.2 191 c2.7-0.8 4.8-0.7 6.3-0.1c-2.2 0.6-4.2 2.5-4.2 5.1c0 3.7 3.1 7 8 7.2c-1.2 8.4-6.2 19.4-16.8 19.3 C218.9 222.4 227.6 194.3 239.2 191z"/>
	</g>
</svg>