<?xml version="1.0" encoding="utf-8"?>
<!-- Generator: Adobe Illustrator 19.0.0, SVG Export Plug-In . SVG Version: 6.00 Build 0)  -->
<svg version="1.1" id="Layer_1" xmlns="http://www.w3.org/2000/svg" xmlns:xlink="http://www.w3.org/1999/xlink" x="0px" y="0px" viewBox="0 0 1000 500" enable-background="new 0 0 1000 500" xml:space="preserve">
	<defs>
		<style>
			#thanks {
			    stroke-dasharray: 5000;
			    stroke-dashoffset: 0;
			    -webkit-animation: dash 3s linear forwards;
			    -o-animation: dash 3s linear forwards;
			    -moz-animation: dash 3s linear forwards;
			    animation: dash 3s linear forwards;
			    animation-fill-mode: forwards;
			}
			@-webkit-keyframes dash {
			    0% {
			        stroke-dashoffset: 5000;
			        stroke: rgba(0, 0, 0, .5);
			    }
			    100% {
			        stroke-dashoffset: 0;
			        fill: #ccb770;
			        stroke: #ccb770;
			    }
			}

		</style>
	</defs>
<g id="XMLID_1_">
	<path id="thanks" fill="#FFFFFF" stroke="#000000" stroke-miterlimit="10" d="M907.7,317.1c0,0,5.3,47.7-110.2,46.6
		c-44.6-0.4-84-13.5-120.5-29.7c11-18.9,18.2-34.3,21.3-41.4c0,0,0,0,0,0c6.7-15,26.4-55.9,34.7-74.8c4.8-10.8-17.2-7.8-17.2-7.8
		c-3.6,0.8-9.8,25.1-21.8,50.6c-7.1,15.1-11.1,21.4-13.2,24c-8.3,8.6-25.3,4.5-20.8-8.4c4.9-14.2,31.7-59,26.9-66.2
		c-7-10.4-22.5,1.2-22.5,1.2l-7.6,4.7c-4.5,2.7-11.1,6.6-17.4,10.3c-0.2-12.5-7.5-25.7-24.5-25.7c-17.4,0-25.5,12.2-25.2,21.5
		c0.3,12.5,8.2,22.6,24.1,22.2c4.2-0.1,10.4-2.9,17-6.7c0,0,0,0,0,0c-1.6,5.5-14.7,35.6-45,53.2c-15.5-6.6-30.8-12.1-46-15.4
		c9.8-7.2,18.8-16.3,25.9-28c27.7-45.7,22.6-140.4-96-140.4c-98.7,0-148.1,44.9-240.4,62c3.1-5.9,5.1-9.7,5.4-10.4
		c3.7-7.5,3.7-14.8-6-14.8c-4.5,0-8.5,0-11.5,0c-1.9,0-3.3,1.6-3.1,3.4c0.2,1.5-0.2,3.8-1.5,7c-0.8,2-4.2,9-9,18.7
		c-6.3,0.7-12.7,1.3-19.5,1.8c10.7-20.5,18.8-36.1,19.5-37.5c3.7-7.5,3.7-14.8-6-14.8c-4.7,0-8.8,0-11.9,0c-1.7,0-3.1,1.4-2.8,3.1
		c0.2,1.5,0,3.8-1.5,7.3c-1.3,3.2-10,20.8-21,42.8c-1.4,0-2.9,0-4.4,0c-77,0-79.2-72.9-36.2-97.4c11.1-4.9,20.2-7.1,27.6-7.8
		c0.8,0,1.6-0.1,2.4-0.1c0.8,0,1.6-0.1,2.4-0.1C170,70.2,178,80.5,178,80.5c15.2-0.7,20.1-37.2-10.4-44.6c-3.7-1-17.6-1.6-24.1-0.5
		l0.1,0c-56.3,6.3-83.1,43.3-79.7,78.4c3.2,33.8,34.4,65.7,93.9,66.8c-22.1,44.3-51.6,102.9-51.6,102.9s-5.6,16.6,5.5,16.6
		c5.5,0,10,0.3,13.6-0.3c2.5-0.5,3.1-3.8,1-5.1c-1.6-1-1.1-5.6,0.2-8.7c1.8-4.3,32.5-63.3,54.6-105.8c6.7-0.3,13.1-0.8,19.4-1.4
		c-19.3,38.8-54.7,108.6-54.7,108.6s-6.9,12.8,7.4,12.8h8.9c2.2,0,4-2,3.5-4.2c-0.4-1.7-0.3-4,1-7.1c1-2.4,9.9-19.5,20.9-40.6
		c12.6-6.6,28.6-13,31.2-13.3c2.6-0.3,4.1,0.2,0.9,5.5c-3.4,5.7-8.9,14.9-15.8,30.5c-9,20.5-7.2,30.2,6.8,30.2
		c10.3,0,19.7-12.2,25.2-20.9c-2.5,14.5,7.3,20.9,16.7,20.9c8.2,0,13.2-3.3,16.2-6.5c1.3,4.4,5.2,6.5,11.7,6.5
		c9.6,0,18.5-10.7,24.1-19.2c-3.7,13-0.4,19.2,10.8,19.2c6.9,0,7.3-2,7.3-2c-3.4-0.4-2.6-5.9,0.9-13.8c5.2-11.9,13.5-28.3,19.8-40.4
		c11.1-5.4,22.7-9.9,24.8-10.2c2.6-0.3,4.1,0.2,0.9,5.5c-3.4,5.7-8.9,14.9-15.8,30.5c-9,20.5-7.2,30.2,6.8,30.2
		c6.8,0,13.2-5.3,18.3-11.4c-1.5,3.7-2.9,10.4,7.6,10.4h9.9c1.5,0,2.6-1.6,2-3c-0.8-1.7-1-4.4,0.6-8.3c0.3-0.7,1.3-2.7,2.7-5.6
		c0.1,0,0.2-0.1,0.2-0.1c1.6,2.8,5.8,7.5,16.6,11.3c-27.6,17.8-42.4,44.2-42.7,71.3c-0.5,54.8,43.9,111.3,147.8,97.3
		c67.2-9.1,117.5-70,146.9-117.3c55.4,32.4,154.1,79.2,235.2,41C961.2,355.1,929.1,307,907.7,317.1z M615.2,210.8
		c7.6-2.2,18.9,5.4,17.3,19.4c-0.5,0.3-1.1,0.6-1.6,0.9C600.8,248.5,596.8,216.1,615.2,210.8z M578.9,294.4
		c-11.8,5.6-25.8,9.2-42.4,9.2c-15.2,0-26.9-3.7-35.3-9.5c10.2-3,21.1-7.5,31.5-13.9C549.1,283.2,564.6,288.4,578.9,294.4z
		 M487.4,277.2c10.8-0.8,21.4-0.4,31.7,0.8c-7.8,3.9-16.3,7-25.6,9C490.9,284,488.9,280.7,487.4,277.2z M273.7,271
		c-1.9,4.2-3.2,8-4.2,11.3c-12.8,7.4-22.2-10.7-9.9-31.1c11.1-18.4,26.2-16.3,31.5-13.6c-0.5,0.9-1,1.9-1.6,2.9
		C286,246.2,280.5,255.4,273.7,271z M419.4,275.6c40.6-19.1,38.1-34.4,31-41.9c-6.7-7.1-19-2.7-22.9-1
		c17.9-34.2,37.7-71.7,38.9-74.1c3.7-7.5,3.7-14.8-6-14.8c-3.8,0-6.7,0-8.8,0c-1.4,0-2.4,1.3-2.1,2.6c0.4,1.5,0.2,3.9-1.4,7.8
		c-3.1,7.4-40.4,79.1-58.7,114.2l0,0c-21.4,32.9-24.8,25.1-21.4,17.2c6.4-14.6,17.4-35.9,23.7-47.7c3.7-7,2.7-13.4-6.7-12.1
		c-6.7,0.9-23.8,6.1-38.6,13.5c0.2-0.4,0.5-0.9,0.7-1.3c3.7-7,2.7-13.4-6.7-12.1c-8.8,1.1-16.4,6-13.5,5.6c2.6-0.3,0.6,3.9-2.6,9.2
		c-3.2,5.5-8.4,14-14.8,28.3c-21.1,32.3-24.5,24.6-21,16.7c6.4-14.6,17.4-35.9,23.7-47.7c3.7-7,2.7-13.4-6.7-12.1
		c-8.8,1.1-16.4,6-13.5,5.6c1-0.1,1.3,0.4,1.2,1.3c-17.6-5.2-31-0.1-49.5,29.2c-1.6,2.5-2.9,4.9-4,7.2c-21,32.1-24.3,24.4-20.9,16.5
		c6.4-14.6,17.4-35.9,23.7-47.7c3.7-7,2.7-13.4-6.7-12.1c-7.7,1-29.1,7.8-45.1,16.9c12.2-23.3,26.3-50,35.2-67
		c93.5-15.4,142.5-60.4,243-63.4c121.8-3.6,131.3,115.9,58.9,161c-3.8-0.5-7.7-0.9-11.5-1.1c-10.7-0.5-20.8-0.3-30.4,0.6
		c-7.5-25.8,11.2-58.2,48.5-57.6c1.5,0,2.6-1.2,2.6-2.6s-1.2-2.6-2.6-2.6c-38.9,0-62.1,33.8-60.4,64.3c-14.7,2.3-27.9,6.2-39.4,11.4
		C426,282.3,421.5,278.2,419.4,275.6z M408.7,268.6c3.7-7.1,8.1-15.6,12.9-24.6c3.4-3.3,14.1-12.4,21.7-6.7
		C452.3,244,436.9,262.4,408.7,268.6z M477.2,289.5c-3.6,0.3-7.4,0.5-11.2,0.6c-9.8,0.1-17.7-0.9-24.1-2.3
		c10.9-4.4,21.7-7.3,32.5-9.1C474.9,282.4,475.8,286,477.2,289.5z M500.8,459.5c-123.3,5.5-155.7-116.6-76.5-163.2
		c9,2.3,21.4,3.9,38.6,3.9c4.4,0,11-0.4,18.9-1.7c9,13.8,26,23.7,52.6,23.7c25.4,0,45.2-8.8,60.3-20.7c20.6,10,37.9,21,50.3,28.9
		c3.5,2.2,7.5,4.7,11.9,7.4C627.7,389,575.6,456.2,500.8,459.5z M662.5,327.4c-21.7-10.2-42.4-21.1-62.6-30.5
		c28.7-25.9,38.6-62.5,38.6-62.5c0.4-1.3,20.7-15.8,24.2-17.2c7.7-4.3-6.4,20.4-16.5,41.2c-10,20.8-1.9,39,20.2,36.3
		c6.3-0.8,10.9-3,14.1-5.6C677,297.7,671,311.4,662.5,327.4z"/>
	<path id="thanks" fill="#FFFFFF" stroke="#000000" stroke-miterlimit="10" d="M759.1,287.3c24.2,1.4,35.8-13.3,43.5-38.7
		c0.8-2.5,1.4-5.1,1.8-7.6c6.6-0.8,13.8-4.7,20-13c0.3-0.4,0.5-0.7,0.8-1c-3.5,6.1-8.1,14.6-13.5,26.9c-9.5,21.7-7.6,31.9,7.1,31.9
		c10.2,0,19.7-11.4,25.5-20.4c-4.1,14-0.6,20.7,11.4,20.7c16.8,0,31.7-31.2,31.7-31.2c2.3-4.4-0.5-3.6-0.5-3.6
		c-22.6,34.8-26.2,26.5-22.6,18.2c6.7-15.4,18.4-37.9,25-50.4c3.9-7.4,2.9-14.1-7.1-12.8c-9.3,1.2-17.4,6.3-14.3,6
		c2.8-0.3,0.6,4.1-2.7,9.7c-3.4,5.7-8.7,14.6-15.3,29.3c-22.5,34.7-26.1,26.4-22.5,18.1c6.7-15.4,18.4-37.9,25-50.4
		c3.9-7.4,2.9-14.1-7.1-12.8c-9.3,1.2-17.4,6.3-14.3,6c1.3-0.2,1.5,0.8,1,2.4c0,0-2.3,4.1-12.6,12.5c-5.7,4.6-10.2,7.2-14.3,7.7
		c0.2-3.2,0-6.3-0.5-9.2c0-0.3-0.1-0.7-0.1-1c-0.2-1.9-0.8-3.5-1.5-4.9c-3.4-8.7-11.1-14.8-24.5-15
		C733.9,203.8,708.4,284.3,759.1,287.3z M798.5,222.2c0,0,0.2,0.5,0.5,1.3c0.1,0.5,0.2,1.1,0.2,1.6c0.2,2.2,0.1,5.1-0.2,8.4
		c-1.1-0.4-2.2-0.9-3.3-1.6C788,227.2,795.6,215.6,798.5,222.2z M779.4,215.9c4.6-1.2,8.5-1.3,11.5-0.6c-4,1.4-7.3,4.9-7.3,9.7
		c0,7.9,6.1,14.2,14.3,15.8c-3.3,16.7-12.7,37.5-31.6,36.7C742.1,276.5,761.1,220.7,779.4,215.9z"/>
</g>
</svg>
